<?xml version="1.0" encoding="UTF-8" standalone="no"?>
<!-- Created with Inkscape (http://www.inkscape.org/) -->

<svg
   width="141.87364"
   height="150.13608"
   id="svg4249"
   version="1.1"
   inkscape:version="1.2.2 (b0a8486541, 2022-12-01)"
   sodipodi:docname="logo-rendered.svg"
   inkscape:export-filename="/tmp/darling270.png"
   inkscape:export-xdpi="170.62"
   inkscape:export-ydpi="170.62"
   xmlns:inkscape="http://www.inkscape.org/namespaces/inkscape"
   xmlns:sodipodi="http://sodipodi.sourceforge.net/DTD/sodipodi-0.dtd"
   xmlns:xlink="http://www.w3.org/1999/xlink"
   xmlns="http://www.w3.org/2000/svg"
   xmlns:svg="http://www.w3.org/2000/svg"
   xmlns:rdf="http://www.w3.org/1999/02/22-rdf-syntax-ns#"
   xmlns:cc="http://creativecommons.org/ns#"
   xmlns:dc="http://purl.org/dc/elements/1.1/">
  <defs
     id="defs4251">
    <linearGradient
       id="linearGradient5059">
      <stop
         style="stop-color:#d3d3d3;stop-opacity:1;"
         offset="0"
         id="stop5061" />
      <stop
         style="stop-color:#ededed;stop-opacity:1;"
         offset="1"
         id="stop5063" />
    </linearGradient>
    <linearGradient
       gradientTransform="matrix(-0.82609832,-0.56352604,-0.56352604,0.82609832,546.68317,882.70857)"
       inkscape:collect="always"
       xlink:href="#linearGradient4457-1-5-04-7"
       id="linearGradient4463-7-9-5-6"
       x1="417.09207"
       y1="-279.72577"
       x2="415.44333"
       y2="-270.978"
       gradientUnits="userSpaceOnUse" />
    <linearGradient
       id="linearGradient4457-1-5-04-7">
      <stop
         style="stop-color:#808080;stop-opacity:1;"
         offset="0"
         id="stop4459-5-8-3-5" />
      <stop
         style="stop-color:#525252;stop-opacity:0;"
         offset="1"
         id="stop4461-8-1-0-7" />
    </linearGradient>
    <linearGradient
       gradientTransform="translate(-147.08674,678.19381)"
       inkscape:collect="always"
       xlink:href="#linearGradient4332-6-98-7"
       id="linearGradient4338-1-0-9"
       x1="456.85464"
       y1="-233.56697"
       x2="456.85144"
       y2="-232.58469"
       gradientUnits="userSpaceOnUse" />
    <linearGradient
       id="linearGradient4332-6-98-7">
      <stop
         style="stop-color:#484848;stop-opacity:1;"
         offset="0"
         id="stop4334-8-6-0" />
      <stop
         style="stop-color:#a1a1a1;stop-opacity:1;"
         offset="1"
         id="stop4336-5-8-2" />
    </linearGradient>
    <linearGradient
       gradientTransform="translate(-246.05912,133.62266)"
       inkscape:collect="always"
       xlink:href="#linearGradient5972-2"
       id="linearGradient5981-7"
       gradientUnits="userSpaceOnUse"
       x1="587.12018"
       y1="310.61505"
       x2="587.13025"
       y2="308.20013" />
    <linearGradient
       id="linearGradient5972-2">
      <stop
         style="stop-color:#2e2e2e;stop-opacity:1;"
         offset="0"
         id="stop5974-3" />
      <stop
         style="stop-color:#222222;stop-opacity:1;"
         offset="1"
         id="stop5976-3" />
    </linearGradient>
    <linearGradient
       inkscape:collect="always"
       xlink:href="#linearGradient4457-5-5-7"
       id="linearGradient4463-5-0-8"
       x1="414.58331"
       y1="-277.76218"
       x2="419.009"
       y2="-271.55243"
       gradientUnits="userSpaceOnUse"
       gradientTransform="translate(-148.11273,672.40794)" />
    <linearGradient
       inkscape:collect="always"
       id="linearGradient4457-5-5-7">
      <stop
         style="stop-color:#525252;stop-opacity:1;"
         offset="0"
         id="stop4459-7-9-9" />
      <stop
         style="stop-color:#525252;stop-opacity:0;"
         offset="1"
         id="stop4461-3-3-3" />
    </linearGradient>
    <linearGradient
       gradientTransform="translate(-147.56678,672.98826)"
       inkscape:collect="always"
       xlink:href="#linearGradient4332-6-9-3-6"
       id="linearGradient4338-1-7-2-3"
       x1="456.85464"
       y1="-233.56697"
       x2="456.85144"
       y2="-232.58469"
       gradientUnits="userSpaceOnUse" />
    <linearGradient
       id="linearGradient4332-6-9-3-6">
      <stop
         style="stop-color:#484848;stop-opacity:1;"
         offset="0"
         id="stop4334-8-1-4-5" />
      <stop
         style="stop-color:#a1a1a1;stop-opacity:1;"
         offset="1"
         id="stop4336-5-2-9-4" />
    </linearGradient>
    <linearGradient
       gradientTransform="translate(-147.85011,674.3595)"
       inkscape:collect="always"
       xlink:href="#linearGradient4332-6-9-1"
       id="linearGradient4338-1-7-9"
       x1="456.85464"
       y1="-233.56697"
       x2="456.85144"
       y2="-232.58469"
       gradientUnits="userSpaceOnUse" />
    <linearGradient
       id="linearGradient4332-6-9-1">
      <stop
         style="stop-color:#484848;stop-opacity:1;"
         offset="0"
         id="stop4334-8-1-1" />
      <stop
         style="stop-color:#a1a1a1;stop-opacity:1;"
         offset="1"
         id="stop4336-5-2-7" />
    </linearGradient>
    <linearGradient
       gradientTransform="matrix(-1,0,0,1,401.50709,715.60764)"
       inkscape:collect="always"
       xlink:href="#linearGradient4122-3-9-3-8-8"
       id="linearGradient4120-2-7-5-7-9"
       gradientUnits="userSpaceOnUse"
       x1="128.21098"
       y1="-282.50681"
       x2="124.46296"
       y2="-262.41513" />
    <linearGradient
       id="linearGradient4122-3-9-3-8-8">
      <stop
         id="stop4124-0-7-6-7-2"
         offset="0"
         style="stop-color:#ffe1b6;stop-opacity:0.87596899;" />
      <stop
         id="stop4126-2-1-4-0-9"
         offset="1"
         style="stop-color:#ffffff;stop-opacity:0;" />
    </linearGradient>
    <linearGradient
       gradientTransform="matrix(0.99827566,0,0,0.99698553,-149.1245,671.65339)"
       y2="-261.96201"
       x2="482.65091"
       y1="-241.98799"
       x1="501.63724"
       gradientUnits="userSpaceOnUse"
       id="linearGradient4367-2-1-3"
       xlink:href="#linearGradient4386-8-5-51"
       inkscape:collect="always" />
    <linearGradient
       id="linearGradient4386-8-5-51">
      <stop
         style="stop-color:#ffffff;stop-opacity:0.453125;"
         offset="0"
         id="stop4388-9-1-2" />
      <stop
         id="stop4390-7-6-7"
         offset="1"
         style="stop-color:#ffffff;stop-opacity:0;" />
    </linearGradient>
    <linearGradient
       inkscape:collect="always"
       xlink:href="#linearGradient4122-5-3-6-4"
       id="linearGradient4120-8-2-73-9"
       gradientUnits="userSpaceOnUse"
       x1="128.21098"
       y1="-282.50681"
       x2="124.46296"
       y2="-262.41513"
       gradientTransform="matrix(0.93969262,-0.34202014,0.34202014,0.93969262,323.66238,740.82154)" />
    <linearGradient
       id="linearGradient4122-5-3-6-4">
      <stop
         id="stop4124-2-5-9-5"
         offset="0"
         style="stop-color:#ffe1b6;stop-opacity:0.87596899;" />
      <stop
         id="stop4126-29-7-6-5"
         offset="1"
         style="stop-color:#ffffff;stop-opacity:0;" />
    </linearGradient>
    <linearGradient
       gradientTransform="matrix(1.0006158,0,0,1.0004292,-147.83187,674.96543)"
       inkscape:collect="always"
       xlink:href="#linearGradient4342-5-3-3"
       id="linearGradient4348-1-4-3"
       x1="432.51608"
       y1="-316.12427"
       x2="469.90646"
       y2="-267.27441"
       gradientUnits="userSpaceOnUse" />
    <linearGradient
       id="linearGradient4342-5-3-3">
      <stop
         id="stop4350-1-3-1"
         offset="0"
         style="stop-color:#4040ff;stop-opacity:1;" />
      <stop
         style="stop-color:#0000b9;stop-opacity:1;"
         offset="1"
         id="stop4346-3-0-43" />
    </linearGradient>
    <linearGradient
       inkscape:collect="always"
       xlink:href="#linearGradient4059-3-8-7-4"
       id="linearGradient4065-07-4-8-5"
       x1="112.54134"
       y1="-244.54088"
       x2="131.89862"
       y2="-279.2532"
       gradientUnits="userSpaceOnUse"
       gradientTransform="matrix(0.93969262,-0.34202014,0.34202014,0.93969262,323.66238,740.82154)" />
    <linearGradient
       id="linearGradient4059-3-8-7-4">
      <stop
         style="stop-color:#f7da32;stop-opacity:1;"
         offset="0"
         id="stop4061-1-7-3-8" />
      <stop
         style="stop-color:#f8a42b;stop-opacity:1;"
         offset="1"
         id="stop4063-4-2-1-4" />
    </linearGradient>
    <linearGradient
       inkscape:collect="always"
       xlink:href="#linearGradient5987-5"
       id="linearGradient5944-5"
       x1="581.86902"
       y1="305.20361"
       x2="581.86975"
       y2="311.60971"
       gradientUnits="userSpaceOnUse"
       gradientTransform="matrix(1.0025648,0,0,1.1059972,-252.00581,100.48294)" />
    <linearGradient
       id="linearGradient5987-5">
      <stop
         style="stop-color:#2c2c2c;stop-opacity:1;"
         offset="0"
         id="stop5989-2" />
      <stop
         id="stop5991-1"
         offset="0.42805812"
         style="stop-color:#2c2c2c;stop-opacity:1;" />
      <stop
         style="stop-color:#2c2c2c;stop-opacity:1;"
         offset="0.43021771"
         id="stop5993-7" />
      <stop
         id="stop5997-7"
         offset="0.65587032"
         style="stop-color:#2c2c2c;stop-opacity:1;" />
      <stop
         style="stop-color:#2c2c2c;stop-opacity:1;"
         offset="0.65829945"
         id="stop5999-3" />
      <stop
         style="stop-color:#424242;stop-opacity:1;"
         offset="1"
         id="stop5995-6" />
    </linearGradient>
    <linearGradient
       inkscape:collect="always"
       xlink:href="#linearGradient4079-3-6-7-3"
       id="linearGradient4085-3-8-5-8"
       x1="90.589256"
       y1="-354.45444"
       x2="91.455055"
       y2="-374.3222"
       gradientUnits="userSpaceOnUse" />
    <linearGradient
       id="linearGradient4079-3-6-7-3">
      <stop
         style="stop-color:#ffffff;stop-opacity:0;"
         offset="0"
         id="stop4081-9-2-2-4" />
      <stop
         style="stop-color:#ffffff;stop-opacity:0.48062015;"
         offset="1"
         id="stop4083-3-4-6-6" />
    </linearGradient>
    <linearGradient
       gradientTransform="matrix(-1,0,0,1,401.50709,715.60764)"
       y2="-279.2532"
       x2="131.89862"
       y1="-244.54088"
       x1="112.54134"
       gradientUnits="userSpaceOnUse"
       id="linearGradient4148-6-5-0-6"
       xlink:href="#linearGradient4059-0-6-4-8-2"
       inkscape:collect="always" />
    <linearGradient
       id="linearGradient4059-0-6-4-8-2">
      <stop
         style="stop-color:#f7da32;stop-opacity:1;"
         offset="0"
         id="stop4061-6-8-8-8-6" />
      <stop
         style="stop-color:#f8a42b;stop-opacity:1;"
         offset="1"
         id="stop4063-7-8-0-5-9" />
    </linearGradient>
    <linearGradient
       gradientTransform="matrix(0.99929629,0,0,1.0000612,-147.23825,674.86939)"
       inkscape:collect="always"
       xlink:href="#linearGradient4312-5-6-8"
       id="linearGradient4318-5-5-54"
       x1="423.93631"
       y1="-314.38168"
       x2="494.40891"
       y2="-239.82173"
       gradientUnits="userSpaceOnUse" />
    <linearGradient
       id="linearGradient4312-5-6-8">
      <stop
         style="stop-color:#ffffff;stop-opacity:1;"
         offset="0"
         id="stop4314-6-8-8" />
      <stop
         style="stop-color:#c1c1c1;stop-opacity:1"
         offset="1"
         id="stop4316-2-4-2" />
    </linearGradient>
    <linearGradient
       inkscape:collect="always"
       xlink:href="#linearGradient5059"
       id="linearGradient5065"
       x1="314.76514"
       y1="374.11679"
       x2="332.93872"
       y2="391.44089"
       gradientUnits="userSpaceOnUse" />
  </defs>
  <sodipodi:namedview
     id="base"
     pagecolor="#ffffff"
     bordercolor="#666666"
     borderopacity="1.0"
     inkscape:pageopacity="0.0"
     inkscape:pageshadow="2"
     inkscape:zoom="3.6203867"
     inkscape:cx="80.10194"
     inkscape:cy="84.797571"
     inkscape:document-units="px"
     inkscape:current-layer="layer1"
     showgrid="true"
     fit-margin-top="5"
     fit-margin-left="5"
     fit-margin-right="5"
     fit-margin-bottom="5"
     inkscape:window-width="1524"
     inkscape:window-height="1281"
     inkscape:window-x="2092"
     inkscape:window-y="49"
     inkscape:window-maximized="0"
     showguides="true"
     inkscape:showpageshadow="2"
     inkscape:pagecheckerboard="0"
     inkscape:deskcolor="#d1d1d1">
    <inkscape:grid
       empspacing="5"
       visible="true"
       enabled="true"
       snapvisiblegridlinesonly="true"
       type="xygrid"
       id="grid5254"
       originx="0.24999715"
       originy="0.24999417"
       spacingx="1"
       spacingy="1" />
  </sodipodi:namedview>
  <metadata
     id="metadata4254">
    <rdf:RDF>
      <cc:Work
         rdf:about="">
        <dc:format>image/svg+xml</dc:format>
        <dc:type
           rdf:resource="http://purl.org/dc/dcmitype/StillImage" />
      </cc:Work>
    </rdf:RDF>
  </metadata>
  <g
     inkscape:label="Layer 1"
     inkscape:groupmode="layer"
     id="layer1"
     transform="translate(-243.34889,-328.84772)">
    <path
       style="fill:#ffffff;fill-opacity:1;stroke:none"
       d="m 303.19496,392.60708 c -8.39806,8.82302 -10.04745,21.54425 -12.79311,32.97158 -1.29697,4.94804 -1.92812,10.20833 -0.1269,15.12696 2.08287,6.70654 7.15391,13.39974 14.5529,13.96999 6.37335,0.73954 12.88053,1.04374 19.26418,0.28908 8.23595,-2.07272 13.80819,-10.69183 13.15485,-19.17166 -0.40705,-14.30321 -4.80814,-28.16524 -10.34881,-41.2005 -2.17866,-4.9691 -7.97338,-5.69225 -12.4156,-7.45952 -4.48895,-0.93689 -8.57602,2.15906 -11.28751,5.47407 z"
       id="path4087-7-0-4-1-9"
       inkscape:connector-curvature="0" />
    <path
       style="fill:#000100;fill-opacity:1;stroke:#000000;stroke-width:1px;stroke-linecap:butt;stroke-linejoin:miter;stroke-opacity:1"
       d="m 286.3284,361.64944 c -2.33435,7.05093 -4.17567,14.50136 -5.10808,23.98268 -0.93241,9.48132 -1.90738,23.10721 -2.93927,32.52657 -1.03189,9.41936 -3.80574,15.88471 -6.97756,22.8795 -3.17182,6.99479 -3.53963,16.14307 2.14751,21.27908 5.68714,5.13601 14.97278,8.64839 20.46677,3.91733 5.49399,-4.73106 10.17769,-5.03718 16.88229,-5.25536 6.7046,-0.21818 15.83256,-1.19244 21.9894,1.05401 6.15684,2.24645 11.89125,7.04122 16.77599,1.60561 4.88474,-5.43561 7.27942,-9.64506 3.80978,-19.93661 -3.46964,-10.29155 -17.82388,-26.85614 -18.27815,-38.92649 -0.45427,-12.07035 1.94602,-16.29043 2.3228,-27.40614 0.37678,-11.11571 -4.76829,-29.67321 -11.7134,-36.68119 -6.94511,-7.00798 -10.13721,-6.35857 -16.37115,-6.41916 -6.23394,-0.0606 -12.86696,2.66845 -15.85081,8.6601 -2.98385,5.99165 -4.82177,11.66914 -7.15612,18.72007 z"
       id="path3844-8-9-2-7-4"
       inkscape:connector-curvature="0"
       sodipodi:nodetypes="zzzzzzzzzzzzzzzz" />
    <path
       style="fill:#ffffff;fill-opacity:1;stroke:none"
       d="m 302.91163,393.97834 c -8.39806,8.82302 -10.04745,21.54425 -12.79311,32.97158 -1.29697,4.94804 -1.92812,10.20833 -0.1269,15.12695 2.08287,6.70653 7.15391,13.39973 14.5529,13.96998 6.37335,0.73954 12.88053,1.04374 19.26418,0.28908 8.23595,-2.07272 13.80819,-10.69183 13.15485,-19.17164 -0.40705,-14.30321 -4.80814,-28.16524 -10.34881,-41.2005 -2.17866,-4.9691 -7.97338,-5.69225 -12.4156,-7.45952 -4.48895,-0.93689 -8.57602,2.15906 -11.28751,5.47407 z"
       id="path4087-7-0-4-7"
       inkscape:connector-curvature="0" />
    <path
       style="fill:#ffffff;fill-opacity:1;stroke:none"
       d="m 302.92501,395.06263 c -8.39806,8.82302 -10.04745,21.54425 -12.79311,32.97158 -1.29697,4.94804 -1.92812,10.20833 -0.1269,15.12695 2.08287,6.70655 7.15391,13.39975 14.5529,13.97 6.37335,0.73954 12.88053,1.04374 19.26418,0.28908 8.23595,-2.07272 13.80819,-10.69184 13.15485,-19.17166 -0.40705,-14.30321 -4.80814,-28.16524 -10.34881,-41.2005 -2.17866,-4.9691 -7.97338,-5.69225 -12.4156,-7.45952 -4.48895,-0.93689 -8.57602,2.15906 -11.28751,5.47407 z"
       id="path4087-7-0-1-3"
       inkscape:connector-curvature="0" />
    <rect
       style="fill:url(#linearGradient4318-5-5-54);fill-opacity:1;stroke:#b1b1b1;stroke-width:1.5;stroke-miterlimit:4;stroke-opacity:1;stroke-dasharray:none"
       id="rect3836-9-4-9-8-1"
       width="89.00032"
       height="112.00032"
       x="269.09869"
       y="346.23361"
       ry="9.0005512"
       rx="8.9936666" />
    <path
       style="fill:url(#linearGradient4148-6-5-0-6);fill-opacity:1;stroke:#de9225;stroke-width:1.5;stroke-linecap:butt;stroke-linejoin:miter;stroke-miterlimit:4;stroke-opacity:1;stroke-dasharray:none"
       d="m 266.30964,428.69549 c -2.45518,4.77177 -3.96809,8.16483 -10.02023,8.57994 -5.17841,0.35518 -7.4668,4.04526 -5.49955,9.21413 1.64026,4.30971 -2.45451,9.35951 -1.56215,13.7639 0.98426,4.85799 8.62838,3.96197 12.91808,5.27828 6.49146,1.99192 13.42478,2.75962 19.44553,6.08763 4.54358,2.51148 11.41694,-0.55289 13.82162,-5.43429 1.66106,-3.37188 0.9132,-7.42746 -1.38056,-10.64756 -6.43312,-9.03116 -11.00518,-18.64749 -17.69399,-26.97599 -0.93803,-1.16798 -2.17093,-1.74662 -3.59563,-2.12706 -1.81283,-0.48408 -5.57466,0.59254 -6.43312,2.26102 z"
       id="path3049-8-5-1-0-7-1-8"
       inkscape:connector-curvature="0"
       sodipodi:nodetypes="sssssssssss" />
    <path
       sodipodi:type="arc"
       style="fill:url(#linearGradient4085-3-8-5-8);fill-opacity:1;stroke:none"
       id="path4075-2-6-5-1"
       sodipodi:cx="89.380104"
       sodipodi:cy="-356.54465"
       sodipodi:rx="14.460939"
       sodipodi:ry="17.731192"
       d="m 103.84104,-356.54465 a 14.460939,17.731192 0 0 1 -14.460936,17.73119 14.460939,17.731192 0 0 1 -14.460939,-17.73119 14.460939,17.731192 0 0 1 14.460939,-17.73119 14.460939,17.731192 0 0 1 14.460936,17.73119 z"
       transform="translate(218.11416,711.60607)" />
    <path
       style="fill:url(#linearGradient5944-5);fill-opacity:1;stroke:#959595;stroke-width:1.5;stroke-linejoin:round;stroke-miterlimit:4;stroke-opacity:1;stroke-dasharray:none"
       d="m 340.55914,439.78802 -0.0552,3.37306 -26.36535,0.033 0.0692,-3.42049 z"
       id="rect4320-9-2-3-6"
       inkscape:connector-curvature="0"
       sodipodi:nodetypes="ccccc" />
    <path
       style="fill:url(#linearGradient4065-07-4-8-5);fill-opacity:1;stroke:#de9225;stroke-width:1.5;stroke-linecap:butt;stroke-linejoin:miter;stroke-miterlimit:4;stroke-opacity:1;stroke-dasharray:none"
       d="m 352.57668,424.97204 c 3.93916,3.64427 6.52133,6.31528 12.35046,4.6354 4.98759,-1.43736 8.40006,1.24751 8.3193,6.77747 -0.0673,4.61081 5.50763,7.95557 6.17548,12.39955 0.73662,4.90166 -6.75296,6.67412 -10.33375,9.37821 -5.4187,4.092 -11.67132,7.18474 -16.19073,12.37126 -3.41059,3.91402 -10.91753,3.38528 -14.84673,-0.37929 -2.71414,-2.60041 -3.39847,-6.6672 -2.34438,-10.47761 2.95632,-10.68677 3.96367,-21.2869 7.40058,-31.40084 0.48198,-1.41837 1.44262,-2.38379 2.65128,-3.22856 1.53794,-1.07491 5.44115,-1.34984 6.81849,-0.0756 z"
       id="path3049-8-5-11-1-7-0"
       inkscape:connector-curvature="0"
       sodipodi:nodetypes="sssssssssss" />
    <rect
       style="fill:url(#linearGradient4348-1-4-3);fill-opacity:1;stroke:url(#linearGradient5065);stroke-width:1.5;stroke-miterlimit:4;stroke-opacity:1;stroke-dasharray:none"
       id="rect3842-1-5-9-6-6"
       width="68.999481"
       height="68.999481"
       x="279.09915"
       y="356.23404"
       rx="12.007389"
       ry="12.005151" />
    <path
       style="opacity:0.7;fill:url(#linearGradient4120-8-2-73-9);fill-opacity:1;stroke:none"
       d="m 341.24567,445.49797 c 0.54546,-3.2791 1.34004,-6.53316 2.44709,-9.66755 1.08059,-3.05948 1.00674,-7.76717 4.06776,-8.84347 3.40408,-1.19694 6.25163,3.7237 9.68322,4.83926 2.86151,0.93024 7.32675,-1.07832 8.9039,1.48413 2.54803,4.13982 -2.37884,9.47467 -4.33995,13.92266 -0.83281,1.88891 -1.45646,4.12888 -3.12195,5.34858 -3.20195,2.3449 -7.68973,3.20616 -11.61478,2.61858 -2.47348,-0.37027 -5.34919,-1.50867 -6.51532,-3.72121 -0.93267,-1.7696 0.16181,-4.00776 0.49003,-5.98098 z"
       id="path4097-8-4-3-9"
       inkscape:connector-curvature="0"
       sodipodi:nodetypes="aaaaaaaaaa" />
    <rect
       style="fill:url(#linearGradient4367-2-1-3);fill-opacity:1;stroke:none"
       id="rect3842-1-5-4-9-3-1"
       width="67"
       height="65"
       x="278.59888"
       y="357.7338"
       rx="11.979308"
       ry="11.963826" />
    <path
       style="opacity:0.7;fill:url(#linearGradient4120-2-7-5-7-9);fill-opacity:1;stroke:none"
       d="m 283.97758,444.10813 c -1.63408,-2.89479 -3.4937,-5.68084 -5.60601,-8.24757 -2.06183,-2.50539 -3.60256,-6.95443 -6.84709,-6.91889 -3.60815,0.0395 -4.60101,5.63729 -7.44411,7.85925 -2.37078,1.85283 -7.2537,1.4926 -7.85933,4.43994 -0.97845,4.76165 5.47591,8.08968 8.84006,11.59869 1.42863,1.49015 2.78078,3.38174 4.76299,3.95825 3.81086,1.10835 8.32256,0.38276 11.80992,-1.51182 2.19767,-1.19392 4.51059,-3.24722 4.84966,-5.72517 0.27119,-1.98187 -1.52278,-3.71072 -2.50609,-5.45268 z"
       id="path4097-7-0-8-6-8"
       inkscape:connector-curvature="0"
       sodipodi:nodetypes="aaaaaaaaaa" />
    <g
       aria-label="$ dar
  ling"
       transform="translate(482.22388,538.05132)"
       id="flowRoot4019-8-1-5-8"
       style="font-weight:500;line-height:0.01%;font-family:TlwgMono;-inkscape-font-specification:'TlwgMono Medium';text-align:center;letter-spacing:0px;word-spacing:0px;text-anchor:middle">
      <path
         d="m -193.29102,-162.78236 q 0.55469,0.0703 1.08594,0.3125 0.125,-0.0703 0.23438,-0.10156 0.11718,-0.0391 0.22656,-0.0391 0.35937,0 0.57812,0.25 0.22657,0.24219 0.22657,0.82031 v 0.51563 q 0,0.57812 -0.22657,0.82812 -0.21875,0.24219 -0.57031,0.24219 -0.32031,0 -0.54687,-0.21094 -0.21875,-0.21094 -0.25782,-0.61719 -0.5625,-0.44531 -1.40625,-0.44531 -0.88281,0 -1.29687,0.32031 -0.40625,0.3125 -0.40625,0.69532 0,0.29687 0.25,0.53125 0.25,0.23437 1.04687,0.39843 l 1.0625,0.22657 q 1.34375,0.27343 1.92969,0.82031 0.76563,0.69531 0.76563,1.83594 0,1 -0.70313,1.78125 -0.69531,0.77343 -1.99219,1.02343 v 1.35938 q 0,0.57812 -0.22656,0.82031 -0.21875,0.25 -0.57812,0.25 -0.35157,0 -0.57813,-0.25 -0.21875,-0.24219 -0.21875,-0.82031 v -1.35938 q -0.625,-0.13281 -1.25,-0.41406 -0.33594,0.28125 -0.625,0.28125 -0.38281,0 -0.60937,-0.24219 -0.21875,-0.24218 -0.21875,-0.82031 v -1.00781 q 0,-0.57813 0.21875,-0.82031 0.22656,-0.25 0.58593,-0.25 0.28907,0 0.48438,0.15625 0.19531,0.15625 0.28125,0.48437 0.0859,0.32031 0.24219,0.48438 0.23437,0.25 0.71093,0.42187 0.48438,0.16406 0.99219,0.16406 0.89063,0 1.48438,-0.46093 0.39843,-0.30469 0.39843,-0.78907 0,-0.39843 -0.26562,-0.65625 -0.26563,-0.25 -1.11719,-0.42187 l -1.20312,-0.24219 q -1.27344,-0.25 -1.86719,-0.91406 -0.59375,-0.66406 -0.59375,-1.59375 0,-0.92188 0.64062,-1.64063 0.64063,-0.71875 1.71094,-0.90625 v -0.4375 q 0,-0.57031 0.21875,-0.8125 0.22656,-0.25 0.58594,-0.25 0.35156,0 0.57031,0.25 0.22656,0.24219 0.22656,0.8125 z"
         style="font-weight:bold;font-size:16px;line-height:1.25;font-family:'Nimbus Mono L';-inkscape-font-specification:'Nimbus Mono L Bold';text-align:start;text-anchor:start;fill:#ffffff"
         id="path362" />
      <path
         d="m -171.21289,-163.29798 v 8.53125 h 0.27344 q 0.57031,0 0.82031,0.22656 0.25,0.21875 0.25,0.57813 0,0.35156 -0.25,0.57812 -0.24219,0.21875 -0.82031,0.21875 h -1.875 v -0.39062 q -0.54688,0.32031 -1.14844,0.48437 -0.59375,0.16406 -1.23438,0.16406 -1.80468,0 -2.90625,-1.03906 -1.10156,-1.04687 -1.10156,-2.60156 0,-1.625 1.15625,-2.77344 1.15625,-1.14844 2.82031,-1.14844 0.625,0 1.22657,0.19532 0.60156,0.1875 1.1875,0.57031 v -1.99219 h -0.27344 q -0.57813,0 -0.82813,-0.21875 -0.24218,-0.22656 -0.24218,-0.57812 0,-0.35938 0.24218,-0.57813 0.25,-0.22656 0.82813,-0.22656 z m -1.60156,6.79687 q 0,-0.99218 -0.69532,-1.67968 -0.69531,-0.6875 -1.70312,-0.6875 -1,0 -1.69531,0.6875 -0.69532,0.6875 -0.69532,1.65625 0,0.88281 0.625,1.45312 0.625,0.5625 1.76563,0.5625 1.13281,0 1.76562,-0.5625 0.63282,-0.57031 0.63282,-1.42969 z"
         style="font-weight:bold;font-size:16px;line-height:1.25;font-family:'Nimbus Mono L';-inkscape-font-specification:'Nimbus Mono L Bold';text-align:start;text-anchor:start;fill:#ffffff"
         id="path364" />
      <path
         d="m -163.8457,-153.16517 v -0.375 q -0.60157,0.32031 -1.32813,0.47656 -0.72656,0.16407 -1.32031,0.16407 -1.28906,0 -2.09375,-0.67969 -0.80469,-0.6875 -0.80469,-1.51563 0,-1.00781 1.02344,-1.86718 1.03125,-0.86719 2.84375,-0.86719 0.72656,0 1.67969,0.15625 v -0.38281 q 0,-0.35938 -0.3125,-0.58594 -0.30469,-0.22656 -1.17188,-0.22656 -0.71094,0 -1.84375,0.28125 -0.42187,0.10156 -0.65625,0.10156 -0.32031,0 -0.54687,-0.22656 -0.21875,-0.23438 -0.21875,-0.59375 0,-0.20313 0.0781,-0.35157 0.0781,-0.14843 0.21875,-0.23437 0.14063,-0.0937 0.58594,-0.21875 0.59375,-0.16406 1.21094,-0.25781 0.61718,-0.10157 1.11718,-0.10157 1.49219,0 2.3125,0.64844 0.82813,0.64063 0.82813,1.75781 v 3.29688 h 0.27344 q 0.57812,0 0.82031,0.22656 0.25,0.21875 0.25,0.57813 0,0.35156 -0.25,0.57812 -0.24219,0.21875 -0.82031,0.21875 z m 0,-2.86719 q -0.96094,-0.1875 -1.77344,-0.1875 -0.97656,0 -1.67969,0.47657 -0.4375,0.30468 -0.4375,0.61718 0,0.22657 0.21094,0.36719 0.39062,0.25781 1.07031,0.25781 0.57813,0 1.30469,-0.22656 0.73437,-0.22656 1.30469,-0.61719 z"
         style="font-weight:bold;font-size:16px;line-height:1.25;font-family:'Nimbus Mono L';-inkscape-font-specification:'Nimbus Mono L Bold';text-align:start;text-anchor:start;fill:#ffffff"
         id="path366" />
      <path
         d="m -156.01758,-160.25892 v 1 q 1.00781,-0.72656 1.58594,-0.96875 0.58594,-0.24219 1.09375,-0.24219 0.78125,0 1.51562,0.57813 0.5,0.39062 0.5,0.79687 0,0.34375 -0.24218,0.58594 -0.23438,0.23438 -0.57032,0.23438 -0.29687,0 -0.625,-0.29688 -0.32812,-0.29687 -0.58593,-0.29687 -0.33594,0 -1.00782,0.42187 -0.66406,0.42188 -1.66406,1.26563 v 2.41406 h 2.28125 q 0.57813,0 0.82031,0.22656 0.25,0.21875 0.25,0.57813 0,0.35156 -0.25,0.57812 -0.24218,0.21875 -0.82031,0.21875 h -4.83594 q -0.57812,0 -0.82812,-0.21875 -0.24219,-0.22656 -0.24219,-0.58594 0,-0.35156 0.24219,-0.57031 0.25,-0.22656 0.82812,-0.22656 h 0.95313 v -3.89063 h -0.57813 q -0.57812,0 -0.82812,-0.21875 -0.24219,-0.22656 -0.24219,-0.58593 0,-0.35157 0.24219,-0.57032 0.25,-0.22656 0.82812,-0.22656 z"
         style="font-weight:bold;font-size:16px;line-height:1.25;font-family:'Nimbus Mono L';-inkscape-font-specification:'Nimbus Mono L Bold';text-align:start;text-anchor:start;fill:#ffffff"
         id="path368" />
      <path
         d="m -174.08789,-143.29798 v 8.53125 h 1.92187 q 0.57813,0 0.82032,0.22656 0.25,0.21875 0.25,0.57813 0,0.35156 -0.25,0.57812 -0.24219,0.21875 -0.82032,0.21875 h -5.44531 q -0.57812,0 -0.82812,-0.21875 -0.24219,-0.22656 -0.24219,-0.58594 0,-0.35156 0.24219,-0.57031 0.25,-0.22656 0.82812,-0.22656 h 1.92188 v -6.92969 h -1.28907 q -0.57031,0 -0.82031,-0.21875 -0.25,-0.22656 -0.25,-0.58594 0,-0.35156 0.24219,-0.57031 0.25,-0.22656 0.82812,-0.22656 z"
         style="font-weight:bold;font-size:16px;line-height:1.25;font-family:'Nimbus Mono L';-inkscape-font-specification:'Nimbus Mono L Bold';text-align:start;text-anchor:start;fill:#ffffff"
         id="path370" />
      <path
         d="m -164.71289,-143.29798 v 1.69531 h -1.90625 v -1.69531 z m 0.21875,3.03906 v 5.49219 h 1.92187 q 0.57813,0 0.82032,0.22656 0.25,0.21875 0.25,0.57813 0,0.35156 -0.25,0.57812 -0.24219,0.21875 -0.82032,0.21875 h -5.44531 q -0.57812,0 -0.82812,-0.21875 -0.24219,-0.22656 -0.24219,-0.58594 0,-0.35156 0.24219,-0.57031 0.25,-0.22656 0.82812,-0.22656 h 1.92188 v -3.89063 h -1.28907 q -0.57031,0 -0.82031,-0.21875 -0.25,-0.22656 -0.25,-0.58593 0,-0.35157 0.24219,-0.57032 0.25,-0.22656 0.82812,-0.22656 z"
         style="font-weight:bold;font-size:16px;line-height:1.25;font-family:'Nimbus Mono L';-inkscape-font-specification:'Nimbus Mono L Bold';text-align:start;text-anchor:start;fill:#ffffff"
         id="path372" />
      <path
         d="m -157.30664,-140.25892 v 0.53906 q 0.4375,-0.375 0.96094,-0.5625 0.53125,-0.1875 1.14843,-0.1875 1.42188,0 2.25,0.88282 0.65625,0.70312 0.65625,1.84375 v 2.97656 q 0.50782,0 0.75,0.22656 0.24219,0.21875 0.24219,0.57813 0,0.35156 -0.25,0.57812 -0.24219,0.21875 -0.82031,0.21875 h -1.44531 q -0.57813,0 -0.82813,-0.21875 -0.24219,-0.22656 -0.24219,-0.58594 0,-0.35156 0.24219,-0.57031 0.24219,-0.22656 0.75,-0.22656 v -3.02344 q 0,-0.52344 -0.28125,-0.76562 -0.36719,-0.3125 -1.10156,-0.3125 -0.55469,0 -0.97656,0.21875 -0.41407,0.21093 -1.05469,0.90625 v 2.97656 q 0.61719,0 0.79687,0.11719 0.38282,0.23437 0.38282,0.6875 0,0.35156 -0.25,0.57812 -0.24219,0.21875 -0.82032,0.21875 h -1.82031 q -0.57812,0 -0.82812,-0.21875 -0.24219,-0.22656 -0.24219,-0.58594 0,-0.4375 0.375,-0.67968 0.1875,-0.11719 0.80469,-0.11719 v -3.89063 q -0.50782,0 -0.75,-0.22656 -0.24219,-0.22656 -0.24219,-0.57812 0,-0.35157 0.24219,-0.57032 0.25,-0.22656 0.82812,-0.22656 z"
         style="font-weight:bold;font-size:16px;line-height:1.25;font-family:'Nimbus Mono L';-inkscape-font-specification:'Nimbus Mono L Bold';text-align:start;text-anchor:start;fill:#ffffff"
         id="path374" />
      <path
         d="m -144.32227,-139.78236 v -0.47656 h 1.875 q 0.57813,0 0.82032,0.22656 0.25,0.21875 0.25,0.57813 0,0.35156 -0.25,0.57812 -0.24219,0.21875 -0.82032,0.21875 h -0.27343 v 5.82813 q 0,0.84375 -0.35938,1.46875 -0.35156,0.63281 -1.08594,1.08594 -0.73437,0.45312 -1.65625,0.45312 h -1.8125 q -0.57812,0 -0.82812,-0.22656 -0.24219,-0.21875 -0.24219,-0.57031 0,-0.35938 0.24219,-0.58594 0.25,-0.21875 0.82812,-0.21875 h 1.76563 q 0.73437,0 1.14062,-0.39844 0.40625,-0.39844 0.40625,-1.00781 v -0.78125 q -0.53125,0.34375 -1.08593,0.51562 -0.54688,0.17188 -1.125,0.17188 -1.63282,0 -2.73438,-1.08594 -1.10156,-1.09375 -1.10156,-2.69531 0,-1.60938 1.10156,-2.69531 1.10156,-1.09375 2.73438,-1.09375 0.60937,0 1.15625,0.17968 0.55468,0.17188 1.05468,0.53125 z m -0.008,3.07032 q 0,-0.88282 -0.65625,-1.53125 -0.64844,-0.64844 -1.5625,-0.64844 -0.91406,0 -1.57031,0.64844 -0.64844,0.64843 -0.64844,1.53125 0,0.89062 0.64844,1.53906 0.65625,0.64062 1.57031,0.64062 0.91406,0 1.5625,-0.64062 0.65625,-0.64844 0.65625,-1.53906 z"
         style="font-weight:bold;font-size:16px;line-height:1.25;font-family:'Nimbus Mono L';-inkscape-font-specification:'Nimbus Mono L Bold';text-align:start;text-anchor:start;fill:#ffffff"
         id="path376" />
    </g>
    <path
       style="fill:#000000;fill-opacity:1;stroke:#000000;stroke-width:1px;stroke-linecap:butt;stroke-linejoin:miter;stroke-opacity:1"
       d="m 265.88829,391.09989 c -2.07292,0.50409 -2.61736,3.62172 -2.81956,5.74545 -0.20468,2.14984 -0.33025,5.52923 1.70541,6.2502 3.39889,1.20379 8.75604,-2.71165 8.78097,-6.31733 0.022,-3.18013 -4.57667,-6.42978 -7.66682,-5.67832 z"
       id="path4432-8-1-9"
       inkscape:connector-curvature="0"
       sodipodi:nodetypes="aaaaa" />
    <rect
       style="opacity:0;fill:url(#linearGradient4338-1-7-9);fill-opacity:1;stroke:none"
       id="rect4330-3-6-1"
       width="48.711872"
       height="1.1199698"
       x="283.51923"
       y="440.8382"
       ry="0.53718472" />
    <rect
       style="opacity:0;fill:url(#linearGradient4338-1-7-2-3);fill-opacity:1;stroke:none"
       id="rect4330-3-6-7-1"
       width="48.711872"
       height="1.1199698"
       x="283.80255"
       y="439.46692"
       ry="0.53718472" />
    <path
       style="fill:url(#linearGradient4463-5-0-8);fill-opacity:1;stroke:none"
       d="m 266.64745,392.08526 c -1.97574,0.48395 -2.75872,3.35333 -2.87209,5.38431 -0.0857,1.53467 0.21259,3.91281 1.70396,4.2848 2.8965,0.72248 6.98378,-2.81149 6.83001,-5.79277 -0.11782,-2.2842 -3.44032,-4.4205 -5.66188,-3.87634 z"
       id="path4432-5-3-5-2"
       inkscape:connector-curvature="0"
       sodipodi:nodetypes="aaaaa" />
    <path
       style="opacity:0;fill:url(#linearGradient5981-7);fill-opacity:1;stroke:none"
       d="m 319.25796,441.65899 30.97754,0 0.0444,2.82214 -9.51371,-0.0244 -0.0244,-1.36607 -21.48378,0 0,0 z"
       id="rect5970-7"
       inkscape:connector-curvature="0"
       sodipodi:nodetypes="cccccccc" />
    <rect
       style="opacity:0;fill:url(#linearGradient4338-1-0-9);fill-opacity:1;stroke:none"
       id="rect4330-3-7-1"
       width="48.711872"
       height="1.1199698"
       x="284.28265"
       y="444.67249"
       ry="0.53718472" />
    <path
       style="fill:#000000;fill-opacity:1;stroke:#000000;stroke-width:1px;stroke-linecap:butt;stroke-linejoin:miter;stroke-opacity:1"
       d="m 363.2021,417.0202 c 1.42833,1.58452 0.12123,4.46679 -0.90847,6.3352 -1.04237,1.89133 -2.84303,4.7538 -4.93091,4.20227 -3.48619,-0.92082 -5.70529,-7.17433 -3.69397,-10.167 1.7739,-2.6395 7.40414,-2.73262 9.53344,-0.37039 z"
       id="path4432-2-9-6-9"
       inkscape:connector-curvature="0"
       sodipodi:nodetypes="aaaaa" />
    <path
       style="fill:url(#linearGradient4463-7-9-5-6);fill-opacity:1;stroke:none"
       d="m 360.14959,424.61645 c -1.02961,0.91999 -2.97419,1.43475 -4.09444,0.62758 -2.0546,-1.4804 -2.88973,-5.52866 -1.28501,-7.4877 1.54103,-1.88128 5.78769,-2.11616 7.2927,-0.20594 1.51014,1.91674 -0.0936,5.44019 -1.91325,7.06606 z"
       id="path4432-5-8-0-7-6"
       inkscape:connector-curvature="0"
       sodipodi:nodetypes="aaaaa" />
  </g>
</svg>
